<svg xmlns="http://www.w3.org/2000/svg" width="497" height="497" viewBox="0 0 497.4 497.4"><style>.a{fill:#FFF;}</style><path d="M282.2 283.2v41.7c56-14.8 97.5-66 97.5-126.6 0-72.2-58.7-130.9-130.9-130.9 -72.2 0-130.9 58.7-130.9 130.9 0 60.6 41.4 111.8 97.5 126.6v-41.7c-33.8-13.4-57.8-46.4-57.8-84.9 0-50.3 41-91.3 91.3-91.3 50.3 0 91.3 41 91.3 91.3C340 236.8 316 269.8 282.2 283.2z" class="a"/><path d="M447 198.3C447 88.9 358 0 248.7 0 139.4 0 50.5 88.9 50.5 198.3c0 97.9 71.4 179.4 164.8 195.4v-40.4C143.8 337.9 90.1 274.2 90.1 198.3c0-87.5 71.1-158.6 158.6-158.6 87.5 0 158.6 71.1 158.6 158.6 0 76-53.7 139.6-125.1 155v40.4C375.6 377.7 447 296.2 447 198.3z" class="a"/><path d="M228.4 327.6v27.9 40V497.4h40.5V395.5 355.5v-27.9 -40.4 -27.6c2.3-0.7 4.5-1.6 6.6-2.6 2.3-1 4.5-2.2 6.6-3.5 18.7-11.4 31.2-31.9 31.2-55.3 0-35.7-29-64.7-64.7-64.7 -35.7 0-64.7 29-64.7 64.7 0 23.4 12.5 44 31.2 55.3 2.1 1.3 4.3 2.4 6.6 3.5 2.1 1 4.3 1.9 6.6 2.6v27.6 40.4H228.4zM224.6 191.6c0.6-2.4 1.6-4.6 2.9-6.6 4.4-7.1 12.3-11.8 21.2-11.8s16.8 4.7 21.2 11.8c1.3 2 2.3 4.2 2.9 6.6 0.6 2.1 0.9 4.3 0.9 6.6 0 5.5-1.8 10.5-4.8 14.7 -4.6 6.3-11.9 10.4-20.3 10.4s-15.7-4.1-20.3-10.4c-3-4.1-4.8-9.2-4.8-14.7C223.7 196 224 193.8 224.6 191.6z" class="a"/></svg>